<svg width="20" height="20" viewBox="0 0 20 20" fill="none" xmlns="http://www.w3.org/2000/svg">
<path d="M10.6779 15.5794L15.0111 18.3306C15.57 18.6831 16.2578 18.1587 16.0944 17.5139L14.8392 12.5788C14.8052 12.442 14.8106 12.2984 14.8547 12.1646C14.8988 12.0307 14.9799 11.912 15.0885 11.8222L18.9746 8.58089C19.4819 8.15961 19.224 7.30844 18.5619 7.26545L13.4893 6.93874C13.3509 6.93069 13.2178 6.88249 13.1064 6.80004C12.9949 6.71759 12.9099 6.60446 12.8617 6.47447L10.9702 1.71137C10.9201 1.57372 10.8289 1.45482 10.709 1.37079C10.589 1.28677 10.4461 1.2417 10.2996 1.2417C10.1531 1.2417 10.0102 1.28677 9.89023 1.37079C9.77025 1.45482 9.67904 1.57372 9.62897 1.71137L7.73749 6.47447C7.68928 6.60446 7.60425 6.71759 7.49279 6.80004C7.38133 6.88249 7.24827 6.93069 7.10986 6.93874L2.03724 7.26545C1.37522 7.30844 1.11729 8.15961 1.62456 8.58089L5.5107 11.8222C5.61932 11.912 5.70035 12.0307 5.74446 12.1646C5.78857 12.2984 5.79397 12.442 5.76003 12.5788L4.59935 17.1528C4.4016 17.9265 5.22697 18.5542 5.88899 18.1329L9.92129 15.5794C10.0344 15.5075 10.1656 15.4693 10.2996 15.4693C10.4336 15.4693 10.5648 15.5075 10.6779 15.5794Z" fill="#E13C5A" stroke="#E13C5A" stroke-width="1.37563" stroke-linecap="round" stroke-linejoin="round"/>
</svg>
